# xmcd
#
# Track frame offsets:
#	150
#	16030
#	33025
#	49860
#	64785
#	87545
#	107250
#	123880
#	140512
#	160760
#	180617
#	205222
#	227377
#	249420
#	266755
#	284357
#	308700
#
# Disc length: 4361
#
# Revision: 1
# Processed by: cddbd v1.5.1PL0 Copyright (c) Steve Scherf et al.
# Submitted via: ExactAudioCopy v0.90a11
# Normalized: r0:DSETVAR1,TDELIM( - )
#
DISCID=d9110711
DTITLE=Various Artist - 90 DANCE
DYEAR=1900
DGENRE=
TTITLE0=Technotronic - Get Up
TTITLE1=Dimples D - El Rap De Mi Bella Genio
TTITLE2=2 Unlimited - Get Ready For This
TTITLE3=Double You - Please Dont Go
TTITLE4=Rozalla - Everibody Is Free
TTITLE5=Chimo Bayo - Asi Me Gusta A mi
TTITLE6=Style - James Brown Is Dead
TTITLE7=Mystic - Ritmo De La Noche
TTITLE8=Robins - Show Me Love
TTITLE9=Corona - The Rhythm Of The Night
TTITLE10=Whigfield - Saturday Night
TTITLE11=Rafa Villalba - Chiquetree
TTITLE12=Playahitty - The Summer Is Magic
TTITLE13=Nicky French - Total Eclipse Of The Heart
TTITLE14=Newton - Streamline
TTITLE15=Double Vision - Knocking
TTITLE16=Xcite - Chiki Chika
EXTD=
EXTT0=
EXTT1=
EXTT2=
EXTT3=
EXTT4=
EXTT5=
EXTT6=
EXTT7=
EXTT8=
EXTT9=
EXTT10=
EXTT11=
EXTT12=
EXTT13=
EXTT14=
EXTT15=
EXTT16=
PLAYORDER=
